<svg width="10" height="10" viewBox="0 0 10 10" fill="none" xmlns="http://www.w3.org/2000/svg">
<path d="M5.82453 5.00007L9.32895 1.49547C9.55702 1.26751 9.55702 0.898929 9.32895 0.67097C9.101 0.44301 8.73243 0.44301 8.50447 0.67097L4.99995 4.17557L1.49553 0.67097C1.26747 0.44301 0.899001 0.44301 0.671046 0.67097C0.442985 0.898929 0.442985 1.26751 0.671046 1.49547L4.17547 5.00007L0.671046 8.50467C0.442985 8.73263 0.442985 9.1012 0.671046 9.32916C0.78465 9.44288 0.934022 9.5 1.08329 9.5C1.23255 9.5 1.38182 9.44288 1.49553 9.32916L4.99995 5.82456L8.50447 9.32916C8.61818 9.44288 8.76745 9.5 8.91671 9.5C9.06598 9.5 9.21524 9.44288 9.32895 9.32916C9.55702 9.1012 9.55702 8.73263 9.32895 8.50467L5.82453 5.00007Z" fill="black"/>
</svg>
